<?xml version="1.0" encoding="utf-8" standalone="no"?>
<!DOCTYPE svg PUBLIC "-//W3C//DTD SVG 1.1//EN"
  "http://www.w3.org/Graphics/SVG/1.1/DTD/svg11.dtd">
<svg xmlns:xlink="http://www.w3.org/1999/xlink" width="1008pt" height="576pt" viewBox="0 0 1008 576" xmlns="http://www.w3.org/2000/svg" version="1.1">
 <metadata>
  <rdf:RDF xmlns:dc="http://purl.org/dc/elements/1.1/" xmlns:cc="http://creativecommons.org/ns#" xmlns:rdf="http://www.w3.org/1999/02/22-rdf-syntax-ns#">
   <cc:Work>
    <dc:type rdf:resource="http://purl.org/dc/dcmitype/StillImage"/>
    <dc:date>2024-10-25T14:03:44.188568</dc:date>
    <dc:format>image/svg+xml</dc:format>
    <dc:creator>
     <cc:Agent>
      <dc:title>Matplotlib v3.8.4, https://matplotlib.org/</dc:title>
     </cc:Agent>
    </dc:creator>
   </cc:Work>
  </rdf:RDF>
 </metadata>
 <defs>
  <style type="text/css">*{stroke-linejoin: round; stroke-linecap: butt}</style>
 </defs>
 <g id="figure_1">
  <g id="patch_1">
   <path d="M 0 576 
L 1008 576 
L 1008 0 
L 0 0 
z
" style="fill: #ffffff"/>
  </g>
  <g id="axes_1">
   <g id="patch_2">
    <path d="M 418.681185 290.88 
C 418.681185 278.798277 416.779499 266.791503 413.046041 255.301103 
C 409.312584 243.810702 403.793676 232.979234 396.692217 223.204916 
L 303.545455 290.88 
z
" clip-path="url(#pb935d59601)" style="fill: #cd5c5c; stroke: #000000; stroke-width: 0.1; stroke-linejoin: miter"/>
   </g>
   <g id="patch_3">
    <path d="M 416.891226 290.88 
C 416.891226 278.986106 415.019105 267.165996 411.343689 255.85423 
C 407.668274 244.542465 402.235166 233.879389 395.24411 224.257027 
L 303.545455 290.88 
z
" clip-path="url(#pb935d59601)" style="fill: #fef392"/>
   </g>
   <g id="patch_4">
    <path d="M 358.426355 290.88 
C 358.426355 285.121094 357.519892 279.397914 355.740292 273.920869 
C 353.960693 268.443824 351.330035 263.280869 347.945035 258.621816 
L 303.545455 290.88 
z
" clip-path="url(#pb935d59601)" style="fill: #fff5ee"/>
   </g>
   <g id="patch_5">
    <path d="M 303.601627 290.88 
C 303.601627 290.874106 303.6007 290.868248 303.598878 290.862642 
C 303.597057 290.857036 303.594364 290.851751 303.590899 290.846982 
L 303.545455 290.88 
z
" clip-path="url(#pb935d59601)" style="fill: #d3d3d3"/>
   </g>
   <g id="patch_6">
    <path d="M 389.207554 228.642842 
C 382.676722 219.653923 374.771531 211.748732 365.782613 205.217901 
C 356.793694 198.687069 346.832573 193.611624 336.265465 190.178163 
L 303.545455 290.88 
z
" clip-path="url(#pb935d59601)" style="fill: #cd5c5c; stroke: #000000; stroke-width: 0.1; stroke-linejoin: miter"/>
   </g>
   <g id="patch_7">
    <path d="M 387.759447 229.694953 
C 381.339018 220.857991 373.567463 213.086437 364.730501 206.666008 
C 355.893539 200.245579 346.100809 195.255934 335.712337 191.880515 
L 303.545455 290.88 
z
" clip-path="url(#pb935d59601)" style="fill: #fde725"/>
   </g>
   <g id="patch_8">
    <path d="M 361.950955 248.44592 
C 357.498151 242.317162 352.108292 236.927303 345.979534 232.4745 
C 339.850776 228.021696 333.059158 224.561194 325.854371 222.220217 
L 303.545455 290.88 
z
" clip-path="url(#pb935d59601)" style="fill: #fff5ee"/>
   </g>
   <g id="patch_9">
    <path d="M 344.491659 261.130841 
C 341.369943 256.834167 337.591288 253.055511 333.294614 249.933795 
C 328.99794 246.812079 324.236556 244.386033 319.185513 242.744849 
L 303.545455 290.88 
z
" clip-path="url(#pb935d59601)" style="fill: #d3d3d3"/>
   </g>
   <g id="patch_10">
    <path d="M 346.731896 157.965801 
C 332.784597 153.434049 318.210513 151.12574 303.545455 151.12574 
C 288.880396 151.12574 274.306312 153.434049 260.359013 157.965801 
L 303.545455 290.88 
z
" clip-path="url(#pb935d59601)" style="fill: #cd5c5c; stroke: #000000; stroke-width: 0.1; stroke-linejoin: miter"/>
   </g>
   <g id="patch_11">
    <path d="M 346.332836 159.19398 
C 332.514416 154.704103 318.075002 152.417124 303.545455 152.417124 
C 289.015907 152.417124 274.576493 154.704103 260.758073 159.19398 
L 303.545455 290.88 
z
" clip-path="url(#pb935d59601)" style="fill: #ade4b1"/>
   </g>
   <g id="patch_12">
    <path d="M 323.897564 228.242646 
C 317.324738 226.107006 310.456533 225.019189 303.545455 225.019189 
C 296.634376 225.019189 289.766171 226.107006 283.193345 228.242646 
L 303.545455 290.88 
z
" clip-path="url(#pb935d59601)" style="fill: #fff5ee"/>
   </g>
   <g id="patch_13">
    <path d="M 303.566633 290.814821 
C 303.559793 290.812598 303.552646 290.811466 303.545455 290.811466 
C 303.538263 290.811466 303.531116 290.812598 303.524276 290.814821 
L 303.545455 290.88 
z
" clip-path="url(#pb935d59601)" style="fill: #d3d3d3"/>
   </g>
   <g id="patch_14">
    <path d="M 263.872957 168.780607 
C 251.060505 172.943624 238.982802 179.097522 228.083879 187.016052 
C 217.184957 194.934583 207.600037 204.519502 199.681507 215.418425 
L 303.545455 290.88 
z
" clip-path="url(#pb935d59601)" style="fill: #cd5c5c; stroke: #000000; stroke-width: 0.1; stroke-linejoin: miter"/>
   </g>
   <g id="patch_15">
    <path d="M 264.272016 170.008785 
C 251.588443 174.129928 239.632228 180.221924 228.842936 188.060804 
C 218.053644 195.899683 208.565138 205.388189 200.726258 216.177481 
L 303.545455 290.88 
z
" clip-path="url(#pb935d59601)" style="fill: #5cc863"/>
   </g>
   <g id="patch_16">
    <path d="M 276.760503 208.444396 
C 268.110156 211.255065 259.955875 215.409878 252.59745 220.756087 
C 245.239024 226.102296 238.767751 232.57357 233.421542 239.931995 
L 303.545455 290.88 
z
" clip-path="url(#pb935d59601)" style="fill: #fff5ee"/>
   </g>
   <g id="patch_17">
    <path d="M 285.978075 236.813164 
C 280.304593 238.65659 274.956465 241.381598 270.130312 244.888002 
C 265.30416 248.394407 261.059862 252.638706 257.553457 257.464858 
L 303.545455 290.88 
z
" clip-path="url(#pb935d59601)" style="fill: #d3d3d3"/>
   </g>
   <g id="patch_18">
    <path d="M 177.644436 199.407556 
C 168.045811 212.61893 160.586227 227.259189 155.539931 242.79009 
C 150.493635 258.320992 147.923238 274.549844 147.923238 290.88 
L 303.545455 290.88 
z
" clip-path="url(#pb935d59601)" style="fill: #cd5c5c; stroke: #000000; stroke-width: 0.1; stroke-linejoin: miter"/>
   </g>
   <g id="patch_19">
    <path d="M 178.507566 200.034656 
C 168.974746 213.155458 161.566301 227.695349 156.554601 243.119777 
C 151.542901 258.544204 148.990125 274.661797 148.990125 290.88 
L 303.545455 290.88 
z
" clip-path="url(#pb935d59601)" style="fill: #90c7c6"/>
   </g>
   <g id="patch_20">
    <path d="M 244.652335 248.091644 
C 240.162356 254.27157 236.672962 261.119891 234.31244 268.38483 
C 231.951918 275.649769 230.749555 283.241191 230.749555 290.88 
L 303.545455 290.88 
z
" clip-path="url(#pb935d59601)" style="fill: #fff5ee"/>
   </g>
   <g id="patch_21">
    <path d="M 303.483527 290.835007 
C 303.478806 290.841505 303.475136 290.848707 303.472654 290.856346 
C 303.470172 290.863985 303.468908 290.871968 303.468908 290.88 
L 303.545455 290.88 
z
" clip-path="url(#pb935d59601)" style="fill: #d3d3d3"/>
   </g>
   <g id="patch_22">
    <path d="M 160.370875 290.88 
C 160.370875 305.903968 162.735676 320.834736 167.378337 335.123378 
C 172.020999 349.412021 178.883919 362.881261 187.714786 375.035907 
L 303.545455 290.88 
z
" clip-path="url(#pb935d59601)" style="fill: #cd5c5c; stroke: #000000; stroke-width: 0.1; stroke-linejoin: miter"/>
   </g>
   <g id="patch_23">
    <path d="M 161.437762 290.88 
C 161.437762 305.792015 163.784941 320.611523 168.393007 334.793692 
C 173.001073 348.975861 179.812854 362.344733 188.577916 374.408806 
L 303.545455 290.88 
z
" clip-path="url(#pb935d59601)" style="fill: #21908d"/>
   </g>
   <g id="patch_24">
    <path d="M 207.66962 290.88 
C 207.66962 300.940693 209.253192 310.938975 212.362117 320.507262 
C 215.471042 330.07555 220.066748 339.09513 225.980275 347.234402 
L 303.545455 290.88 
z
" clip-path="url(#pb935d59601)" style="fill: #fff5ee"/>
   </g>
   <g id="patch_25">
    <path d="M 242.204416 290.88 
C 242.204416 297.316798 243.21758 303.713665 245.20666 309.835423 
C 247.19574 315.957182 250.136057 321.727879 253.919512 326.935358 
L 303.545455 290.88 
z
" clip-path="url(#pb935d59601)" style="fill: #d3d3d3"/>
   </g>
   <g id="patch_26">
    <path d="M 167.771955 389.525221 
C 178.123253 403.77256 190.652895 416.302202 204.900233 426.653499 
C 219.147572 437.004797 234.935842 445.049322 251.684593 450.491321 
L 303.545455 290.88 
z
" clip-path="url(#pb935d59601)" style="fill: #cd5c5c; stroke: #000000; stroke-width: 0.1; stroke-linejoin: miter"/>
   </g>
   <g id="patch_27">
    <path d="M 168.52571 388.977587 
C 178.819541 403.145831 191.279624 415.605913 205.447868 425.899745 
C 219.616111 436.193577 235.316732 444.193442 251.972501 449.60523 
L 303.545455 290.88 
z
" clip-path="url(#pb935d59601)" style="fill: #9da8c5"/>
   </g>
   <g id="patch_28">
    <path d="M 240.489183 336.693063 
C 245.296559 343.309848 251.115607 349.128895 257.732392 353.936271 
C 264.349177 358.743647 271.681605 362.479705 279.460102 365.007092 
L 303.545455 290.88 
z
" clip-path="url(#pb935d59601)" style="fill: #fff5ee"/>
   </g>
   <g id="patch_29">
    <path d="M 303.478587 290.928582 
C 303.483685 290.935599 303.489856 290.94177 303.496872 290.946868 
C 303.503889 290.951966 303.511665 290.955928 303.519913 290.958608 
L 303.545455 290.88 
z
" clip-path="url(#pb935d59601)" style="fill: #d3d3d3"/>
   </g>
   <g id="patch_30">
    <path d="M 255.945604 437.377278 
C 271.318238 442.37215 287.38171 444.916354 303.545455 444.916354 
C 319.709199 444.916354 335.772671 442.37215 351.145306 437.377278 
L 303.545455 290.88 
z
" clip-path="url(#pb935d59601)" style="fill: #cd5c5c; stroke: #000000; stroke-width: 0.1; stroke-linejoin: miter"/>
   </g>
   <g id="patch_31">
    <path d="M 256.233512 436.491187 
C 271.513164 441.455847 287.479477 443.984662 303.545455 443.984662 
C 319.611432 443.984662 335.577745 441.455847 350.857397 436.491187 
L 303.545455 290.88 
z
" clip-path="url(#pb935d59601)" style="fill: #3b518b"/>
   </g>
   <g id="patch_32">
    <path d="M 271.821353 388.516744 
C 282.066827 391.8457 292.772726 393.541348 303.545455 393.541348 
C 314.318183 393.541348 325.024082 391.8457 335.269556 388.516744 
L 303.545455 290.88 
z
" clip-path="url(#pb935d59601)" style="fill: #fff5ee"/>
   </g>
   <g id="patch_33">
    <path d="M 283.483605 352.624024 
C 289.96269 354.729206 296.732942 355.801509 303.545455 355.801509 
C 310.357967 355.801509 317.128219 354.729206 323.607304 352.624024 
L 303.545455 290.88 
z
" clip-path="url(#pb935d59601)" style="fill: #d3d3d3"/>
   </g>
   <g id="patch_34">
    <path d="M 358.410017 459.735761 
C 376.12883 453.97857 392.831532 445.468119 407.904054 434.51729 
C 422.976577 423.566461 436.231916 410.311122 447.182745 395.2386 
L 303.545455 290.88 
z
" clip-path="url(#pb935d59601)" style="fill: #cd5c5c; stroke: #000000; stroke-width: 0.1; stroke-linejoin: miter"/>
   </g>
   <g id="patch_35">
    <path d="M 358.150833 458.938073 
C 375.78594 453.208079 392.409737 444.737832 407.411056 433.838736 
C 422.412375 422.93964 435.605095 409.74692 446.50419 394.745601 
L 303.545455 290.88 
z
" clip-path="url(#pb935d59601)" style="fill: #a280aa"/>
   </g>
   <g id="patch_36">
    <path d="M 328.895182 368.898439 
C 337.082016 366.238376 344.799365 362.30619 351.763502 357.246448 
C 358.727639 352.186707 364.852161 346.062184 369.911903 339.098047 
L 303.545455 290.88 
z
" clip-path="url(#pb935d59601)" style="fill: #fff5ee"/>
   </g>
   <g id="patch_37">
    <path d="M 303.572451 290.963087 
C 303.58117 290.960254 303.589388 290.956066 303.596805 290.950678 
C 303.604222 290.945289 303.610744 290.938767 303.616132 290.93135 
L 303.545455 290.88 
z
" clip-path="url(#pb935d59601)" style="fill: #d3d3d3"/>
   </g>
   <g id="patch_38">
    <path d="M 435.323121 386.622079 
C 445.369778 372.794041 453.177552 357.470422 458.459392 341.21459 
C 463.741232 324.958757 466.431608 307.972394 466.431608 290.88 
L 303.545455 290.88 
z
" clip-path="url(#pb935d59601)" style="fill: #cd5c5c; stroke: #000000; stroke-width: 0.1; stroke-linejoin: miter"/>
   </g>
   <g id="patch_39">
    <path d="M 434.644567 386.12908 
C 444.639491 372.372247 452.407061 357.127533 457.661704 340.955405 
C 462.916347 324.783277 465.592869 307.884382 465.592869 290.88 
L 303.545455 290.88 
z
" clip-path="url(#pb935d59601)" style="fill: #440154"/>
   </g>
   <g id="patch_40">
    <path d="M 390.976674 354.402499 
C 397.642383 345.227939 402.822647 335.061097 406.327017 324.275754 
C 409.831388 313.490411 411.616385 302.220381 411.616385 290.88 
L 303.545455 290.88 
z
" clip-path="url(#pb935d59601)" style="fill: #fff5ee"/>
   </g>
   <g id="patch_41">
    <path d="M 358.694378 330.948038 
C 362.898901 325.161008 366.166453 318.748077 368.376902 311.945014 
C 370.587351 305.141952 371.713272 298.033163 371.713272 290.88 
L 303.545455 290.88 
z
" clip-path="url(#pb935d59601)" style="fill: #d3d3d3"/>
   </g>
   <g id="text_1">
    <!-- M1 Fe30 -->
    <g style="fill: #ffffff" transform="translate(356.278762 253.759584) rotate(-288) scale(0.08 -0.08)">
     <defs>
      <path id="DejaVuSans-Bold-4d" d="M 588 4666 
L 2119 4666 
L 3181 2169 
L 4250 4666 
L 5778 4666 
L 5778 0 
L 4641 0 
L 4641 3413 
L 3566 897 
L 2803 897 
L 1728 3413 
L 1728 0 
L 588 0 
L 588 4666 
z
" transform="scale(0.015625)"/>
      <path id="DejaVuSans-Bold-31" d="M 750 831 
L 1813 831 
L 1813 3847 
L 722 3622 
L 722 4441 
L 1806 4666 
L 2950 4666 
L 2950 831 
L 4013 831 
L 4013 0 
L 750 0 
L 750 831 
z
" transform="scale(0.015625)"/>
      <path id="DejaVuSans-Bold-20" transform="scale(0.015625)"/>
      <path id="DejaVuSans-Bold-46" d="M 588 4666 
L 3834 4666 
L 3834 3756 
L 1791 3756 
L 1791 2888 
L 3713 2888 
L 3713 1978 
L 1791 1978 
L 1791 0 
L 588 0 
L 588 4666 
z
" transform="scale(0.015625)"/>
      <path id="DejaVuSans-Bold-65" d="M 4031 1759 
L 4031 1441 
L 1416 1441 
Q 1456 1047 1700 850 
Q 1944 653 2381 653 
Q 2734 653 3104 758 
Q 3475 863 3866 1075 
L 3866 213 
Q 3469 63 3072 -14 
Q 2675 -91 2278 -91 
Q 1328 -91 801 392 
Q 275 875 275 1747 
Q 275 2603 792 3093 
Q 1309 3584 2216 3584 
Q 3041 3584 3536 3087 
Q 4031 2591 4031 1759 
z
M 2881 2131 
Q 2881 2450 2695 2645 
Q 2509 2841 2209 2841 
Q 1884 2841 1681 2658 
Q 1478 2475 1428 2131 
L 2881 2131 
z
" transform="scale(0.015625)"/>
      <path id="DejaVuSans-Bold-33" d="M 2981 2516 
Q 3453 2394 3698 2092 
Q 3944 1791 3944 1325 
Q 3944 631 3412 270 
Q 2881 -91 1863 -91 
Q 1503 -91 1142 -33 
Q 781 25 428 141 
L 428 1069 
Q 766 900 1098 814 
Q 1431 728 1753 728 
Q 2231 728 2486 893 
Q 2741 1059 2741 1369 
Q 2741 1688 2480 1852 
Q 2219 2016 1709 2016 
L 1228 2016 
L 1228 2791 
L 1734 2791 
Q 2188 2791 2409 2933 
Q 2631 3075 2631 3366 
Q 2631 3634 2415 3781 
Q 2200 3928 1806 3928 
Q 1516 3928 1219 3862 
Q 922 3797 628 3669 
L 628 4550 
Q 984 4650 1334 4700 
Q 1684 4750 2022 4750 
Q 2931 4750 3382 4451 
Q 3834 4153 3834 3553 
Q 3834 3144 3618 2883 
Q 3403 2622 2981 2516 
z
" transform="scale(0.015625)"/>
      <path id="DejaVuSans-Bold-30" d="M 2944 2338 
Q 2944 3213 2780 3570 
Q 2616 3928 2228 3928 
Q 1841 3928 1675 3570 
Q 1509 3213 1509 2338 
Q 1509 1453 1675 1090 
Q 1841 728 2228 728 
Q 2613 728 2778 1090 
Q 2944 1453 2944 2338 
z
M 4147 2328 
Q 4147 1169 3647 539 
Q 3147 -91 2228 -91 
Q 1306 -91 806 539 
Q 306 1169 306 2328 
Q 306 3491 806 4120 
Q 1306 4750 2228 4750 
Q 3147 4750 3647 4120 
Q 4147 3491 4147 2328 
z
" transform="scale(0.015625)"/>
     </defs>
     <use xlink:href="#DejaVuSans-Bold-4d"/>
     <use xlink:href="#DejaVuSans-Bold-31" x="99.511719"/>
     <use xlink:href="#DejaVuSans-Bold-20" x="169.091797"/>
     <use xlink:href="#DejaVuSans-Bold-46" x="203.90625"/>
     <use xlink:href="#DejaVuSans-Bold-65" x="268.216797"/>
     <use xlink:href="#DejaVuSans-Bold-33" x="336.039062"/>
     <use xlink:href="#DejaVuSans-Bold-30" x="405.619141"/>
    </g>
   </g>
   <g id="text_2">
    <!-- M1 Fe60 -->
    <g style="fill: #ffffff" transform="translate(334.56466 215.847173) rotate(-324) scale(0.08 -0.08)">
     <defs>
      <path id="DejaVuSans-Bold-36" d="M 2316 2303 
Q 2000 2303 1842 2098 
Q 1684 1894 1684 1484 
Q 1684 1075 1842 870 
Q 2000 666 2316 666 
Q 2634 666 2792 870 
Q 2950 1075 2950 1484 
Q 2950 1894 2792 2098 
Q 2634 2303 2316 2303 
z
M 3803 4544 
L 3803 3681 
Q 3506 3822 3243 3889 
Q 2981 3956 2731 3956 
Q 2194 3956 1894 3657 
Q 1594 3359 1544 2772 
Q 1750 2925 1990 3001 
Q 2231 3078 2516 3078 
Q 3231 3078 3670 2659 
Q 4109 2241 4109 1563 
Q 4109 813 3618 361 
Q 3128 -91 2303 -91 
Q 1394 -91 895 523 
Q 397 1138 397 2266 
Q 397 3422 980 4083 
Q 1563 4744 2578 4744 
Q 2900 4744 3203 4694 
Q 3506 4644 3803 4544 
z
" transform="scale(0.015625)"/>
     </defs>
     <use xlink:href="#DejaVuSans-Bold-4d"/>
     <use xlink:href="#DejaVuSans-Bold-31" x="99.511719"/>
     <use xlink:href="#DejaVuSans-Bold-20" x="169.091797"/>
     <use xlink:href="#DejaVuSans-Bold-46" x="203.90625"/>
     <use xlink:href="#DejaVuSans-Bold-65" x="268.216797"/>
     <use xlink:href="#DejaVuSans-Bold-36" x="336.039062"/>
     <use xlink:href="#DejaVuSans-Bold-30" x="405.619141"/>
    </g>
   </g>
   <g id="text_3">
    <!-- M2 Fe30 -->
    <g style="fill: #ffffff" transform="translate(284.53733 218.276894) scale(0.08 -0.08)">
     <defs>
      <path id="DejaVuSans-Bold-32" d="M 1844 884 
L 3897 884 
L 3897 0 
L 506 0 
L 506 884 
L 2209 2388 
Q 2438 2594 2547 2791 
Q 2656 2988 2656 3200 
Q 2656 3528 2436 3728 
Q 2216 3928 1850 3928 
Q 1569 3928 1234 3808 
Q 900 3688 519 3450 
L 519 4475 
Q 925 4609 1322 4679 
Q 1719 4750 2100 4750 
Q 2938 4750 3402 4381 
Q 3866 4013 3866 3353 
Q 3866 2972 3669 2642 
Q 3472 2313 2841 1759 
L 1844 884 
z
" transform="scale(0.015625)"/>
     </defs>
     <use xlink:href="#DejaVuSans-Bold-4d"/>
     <use xlink:href="#DejaVuSans-Bold-32" x="99.511719"/>
     <use xlink:href="#DejaVuSans-Bold-20" x="169.091797"/>
     <use xlink:href="#DejaVuSans-Bold-46" x="203.90625"/>
     <use xlink:href="#DejaVuSans-Bold-65" x="268.216797"/>
     <use xlink:href="#DejaVuSans-Bold-33" x="336.039062"/>
     <use xlink:href="#DejaVuSans-Bold-30" x="405.619141"/>
    </g>
   </g>
   <g id="text_4">
    <!-- M2 Fe60 -->
    <g style="fill: #ffffff" transform="translate(233.256532 226.474152) rotate(-36) scale(0.08 -0.08)">
     <use xlink:href="#DejaVuSans-Bold-4d"/>
     <use xlink:href="#DejaVuSans-Bold-32" x="99.511719"/>
     <use xlink:href="#DejaVuSans-Bold-20" x="169.091797"/>
     <use xlink:href="#DejaVuSans-Bold-46" x="203.90625"/>
     <use xlink:href="#DejaVuSans-Bold-65" x="268.216797"/>
     <use xlink:href="#DejaVuSans-Bold-36" x="336.039062"/>
     <use xlink:href="#DejaVuSans-Bold-30" x="405.619141"/>
    </g>
   </g>
   <g id="text_5">
    <!-- M3 Fe30 -->
    <g style="fill: #ffffff" transform="translate(222.026303 284.379147) rotate(-72) scale(0.08 -0.08)">
     <use xlink:href="#DejaVuSans-Bold-4d"/>
     <use xlink:href="#DejaVuSans-Bold-33" x="99.511719"/>
     <use xlink:href="#DejaVuSans-Bold-20" x="169.091797"/>
     <use xlink:href="#DejaVuSans-Bold-46" x="203.90625"/>
     <use xlink:href="#DejaVuSans-Bold-65" x="268.216797"/>
     <use xlink:href="#DejaVuSans-Bold-33" x="336.039062"/>
     <use xlink:href="#DejaVuSans-Bold-30" x="405.619141"/>
    </g>
   </g>
   <g id="text_6">
    <!-- M3 Fe60 -->
    <g style="fill: #ffffff" transform="translate(195.877065 305.877255) rotate(-288) scale(0.08 -0.08)">
     <use xlink:href="#DejaVuSans-Bold-4d"/>
     <use xlink:href="#DejaVuSans-Bold-33" x="99.511719"/>
     <use xlink:href="#DejaVuSans-Bold-20" x="169.091797"/>
     <use xlink:href="#DejaVuSans-Bold-46" x="203.90625"/>
     <use xlink:href="#DejaVuSans-Bold-65" x="268.216797"/>
     <use xlink:href="#DejaVuSans-Bold-36" x="336.039062"/>
     <use xlink:href="#DejaVuSans-Bold-30" x="405.619141"/>
    </g>
   </g>
   <g id="text_7">
    <!-- M4 Fe30 -->
    <g style="fill: #ffffff" transform="translate(235.796402 351.790017) rotate(-324) scale(0.08 -0.08)">
     <defs>
      <path id="DejaVuSans-Bold-34" d="M 2356 3675 
L 1038 1722 
L 2356 1722 
L 2356 3675 
z
M 2156 4666 
L 3494 4666 
L 3494 1722 
L 4159 1722 
L 4159 850 
L 3494 850 
L 3494 0 
L 2356 0 
L 2356 850 
L 288 850 
L 288 1881 
L 2156 4666 
z
" transform="scale(0.015625)"/>
     </defs>
     <use xlink:href="#DejaVuSans-Bold-4d"/>
     <use xlink:href="#DejaVuSans-Bold-34" x="99.511719"/>
     <use xlink:href="#DejaVuSans-Bold-20" x="169.091797"/>
     <use xlink:href="#DejaVuSans-Bold-46" x="203.90625"/>
     <use xlink:href="#DejaVuSans-Bold-65" x="268.216797"/>
     <use xlink:href="#DejaVuSans-Bold-33" x="336.039062"/>
     <use xlink:href="#DejaVuSans-Bold-30" x="405.619141"/>
    </g>
   </g>
   <g id="text_8">
    <!-- M4 Fe60 -->
    <g style="fill: #ffffff" transform="translate(284.53733 404.698643) scale(0.08 -0.08)">
     <use xlink:href="#DejaVuSans-Bold-4d"/>
     <use xlink:href="#DejaVuSans-Bold-34" x="99.511719"/>
     <use xlink:href="#DejaVuSans-Bold-20" x="169.091797"/>
     <use xlink:href="#DejaVuSans-Bold-46" x="203.90625"/>
     <use xlink:href="#DejaVuSans-Bold-65" x="268.216797"/>
     <use xlink:href="#DejaVuSans-Bold-36" x="336.039062"/>
     <use xlink:href="#DejaVuSans-Bold-30" x="405.619141"/>
    </g>
   </g>
   <g id="text_9">
    <!-- M5 Fe30 -->
    <g style="fill: #ffffff" transform="translate(342.943699 377.445585) rotate(-36) scale(0.08 -0.08)">
     <defs>
      <path id="DejaVuSans-Bold-35" d="M 678 4666 
L 3669 4666 
L 3669 3781 
L 1638 3781 
L 1638 3059 
Q 1775 3097 1914 3117 
Q 2053 3138 2203 3138 
Q 3056 3138 3531 2711 
Q 4006 2284 4006 1522 
Q 4006 766 3489 337 
Q 2972 -91 2053 -91 
Q 1656 -91 1267 -14 
Q 878 63 494 219 
L 494 1166 
Q 875 947 1217 837 
Q 1559 728 1863 728 
Q 2300 728 2551 942 
Q 2803 1156 2803 1522 
Q 2803 1891 2551 2103 
Q 2300 2316 1863 2316 
Q 1603 2316 1309 2248 
Q 1016 2181 678 2041 
L 678 4666 
z
" transform="scale(0.015625)"/>
     </defs>
     <use xlink:href="#DejaVuSans-Bold-4d"/>
     <use xlink:href="#DejaVuSans-Bold-35" x="99.511719"/>
     <use xlink:href="#DejaVuSans-Bold-20" x="169.091797"/>
     <use xlink:href="#DejaVuSans-Bold-46" x="203.90625"/>
     <use xlink:href="#DejaVuSans-Bold-65" x="268.216797"/>
     <use xlink:href="#DejaVuSans-Bold-33" x="336.039062"/>
     <use xlink:href="#DejaVuSans-Bold-30" x="405.619141"/>
    </g>
   </g>
   <g id="text_10">
    <!-- M5 Fe60 -->
    <g style="fill: #ffffff" transform="translate(411.064402 345.801349) rotate(-72) scale(0.08 -0.08)">
     <use xlink:href="#DejaVuSans-Bold-4d"/>
     <use xlink:href="#DejaVuSans-Bold-35" x="99.511719"/>
     <use xlink:href="#DejaVuSans-Bold-20" x="169.091797"/>
     <use xlink:href="#DejaVuSans-Bold-46" x="203.90625"/>
     <use xlink:href="#DejaVuSans-Bold-65" x="268.216797"/>
     <use xlink:href="#DejaVuSans-Bold-36" x="336.039062"/>
     <use xlink:href="#DejaVuSans-Bold-30" x="405.619141"/>
    </g>
   </g>
   <g id="text_11">
    <!-- Without Core Light Elements -->
    <g transform="translate(217.555142 107.334545) scale(0.12 -0.12)">
     <defs>
      <path id="DejaVuSans-57" d="M 213 4666 
L 850 4666 
L 1831 722 
L 2809 4666 
L 3519 4666 
L 4500 722 
L 5478 4666 
L 6119 4666 
L 4947 0 
L 4153 0 
L 3169 4050 
L 2175 0 
L 1381 0 
L 213 4666 
z
" transform="scale(0.015625)"/>
      <path id="DejaVuSans-69" d="M 603 3500 
L 1178 3500 
L 1178 0 
L 603 0 
L 603 3500 
z
M 603 4863 
L 1178 4863 
L 1178 4134 
L 603 4134 
L 603 4863 
z
" transform="scale(0.015625)"/>
      <path id="DejaVuSans-74" d="M 1172 4494 
L 1172 3500 
L 2356 3500 
L 2356 3053 
L 1172 3053 
L 1172 1153 
Q 1172 725 1289 603 
Q 1406 481 1766 481 
L 2356 481 
L 2356 0 
L 1766 0 
Q 1100 0 847 248 
Q 594 497 594 1153 
L 594 3053 
L 172 3053 
L 172 3500 
L 594 3500 
L 594 4494 
L 1172 4494 
z
" transform="scale(0.015625)"/>
      <path id="DejaVuSans-68" d="M 3513 2113 
L 3513 0 
L 2938 0 
L 2938 2094 
Q 2938 2591 2744 2837 
Q 2550 3084 2163 3084 
Q 1697 3084 1428 2787 
Q 1159 2491 1159 1978 
L 1159 0 
L 581 0 
L 581 4863 
L 1159 4863 
L 1159 2956 
Q 1366 3272 1645 3428 
Q 1925 3584 2291 3584 
Q 2894 3584 3203 3211 
Q 3513 2838 3513 2113 
z
" transform="scale(0.015625)"/>
      <path id="DejaVuSans-6f" d="M 1959 3097 
Q 1497 3097 1228 2736 
Q 959 2375 959 1747 
Q 959 1119 1226 758 
Q 1494 397 1959 397 
Q 2419 397 2687 759 
Q 2956 1122 2956 1747 
Q 2956 2369 2687 2733 
Q 2419 3097 1959 3097 
z
M 1959 3584 
Q 2709 3584 3137 3096 
Q 3566 2609 3566 1747 
Q 3566 888 3137 398 
Q 2709 -91 1959 -91 
Q 1206 -91 779 398 
Q 353 888 353 1747 
Q 353 2609 779 3096 
Q 1206 3584 1959 3584 
z
" transform="scale(0.015625)"/>
      <path id="DejaVuSans-75" d="M 544 1381 
L 544 3500 
L 1119 3500 
L 1119 1403 
Q 1119 906 1312 657 
Q 1506 409 1894 409 
Q 2359 409 2629 706 
Q 2900 1003 2900 1516 
L 2900 3500 
L 3475 3500 
L 3475 0 
L 2900 0 
L 2900 538 
Q 2691 219 2414 64 
Q 2138 -91 1772 -91 
Q 1169 -91 856 284 
Q 544 659 544 1381 
z
M 1991 3584 
L 1991 3584 
z
" transform="scale(0.015625)"/>
      <path id="DejaVuSans-20" transform="scale(0.015625)"/>
      <path id="DejaVuSans-43" d="M 4122 4306 
L 4122 3641 
Q 3803 3938 3442 4084 
Q 3081 4231 2675 4231 
Q 1875 4231 1450 3742 
Q 1025 3253 1025 2328 
Q 1025 1406 1450 917 
Q 1875 428 2675 428 
Q 3081 428 3442 575 
Q 3803 722 4122 1019 
L 4122 359 
Q 3791 134 3420 21 
Q 3050 -91 2638 -91 
Q 1578 -91 968 557 
Q 359 1206 359 2328 
Q 359 3453 968 4101 
Q 1578 4750 2638 4750 
Q 3056 4750 3426 4639 
Q 3797 4528 4122 4306 
z
" transform="scale(0.015625)"/>
      <path id="DejaVuSans-72" d="M 2631 2963 
Q 2534 3019 2420 3045 
Q 2306 3072 2169 3072 
Q 1681 3072 1420 2755 
Q 1159 2438 1159 1844 
L 1159 0 
L 581 0 
L 581 3500 
L 1159 3500 
L 1159 2956 
Q 1341 3275 1631 3429 
Q 1922 3584 2338 3584 
Q 2397 3584 2469 3576 
Q 2541 3569 2628 3553 
L 2631 2963 
z
" transform="scale(0.015625)"/>
      <path id="DejaVuSans-65" d="M 3597 1894 
L 3597 1613 
L 953 1613 
Q 991 1019 1311 708 
Q 1631 397 2203 397 
Q 2534 397 2845 478 
Q 3156 559 3463 722 
L 3463 178 
Q 3153 47 2828 -22 
Q 2503 -91 2169 -91 
Q 1331 -91 842 396 
Q 353 884 353 1716 
Q 353 2575 817 3079 
Q 1281 3584 2069 3584 
Q 2775 3584 3186 3129 
Q 3597 2675 3597 1894 
z
M 3022 2063 
Q 3016 2534 2758 2815 
Q 2500 3097 2075 3097 
Q 1594 3097 1305 2825 
Q 1016 2553 972 2059 
L 3022 2063 
z
" transform="scale(0.015625)"/>
      <path id="DejaVuSans-4c" d="M 628 4666 
L 1259 4666 
L 1259 531 
L 3531 531 
L 3531 0 
L 628 0 
L 628 4666 
z
" transform="scale(0.015625)"/>
      <path id="DejaVuSans-67" d="M 2906 1791 
Q 2906 2416 2648 2759 
Q 2391 3103 1925 3103 
Q 1463 3103 1205 2759 
Q 947 2416 947 1791 
Q 947 1169 1205 825 
Q 1463 481 1925 481 
Q 2391 481 2648 825 
Q 2906 1169 2906 1791 
z
M 3481 434 
Q 3481 -459 3084 -895 
Q 2688 -1331 1869 -1331 
Q 1566 -1331 1297 -1286 
Q 1028 -1241 775 -1147 
L 775 -588 
Q 1028 -725 1275 -790 
Q 1522 -856 1778 -856 
Q 2344 -856 2625 -561 
Q 2906 -266 2906 331 
L 2906 616 
Q 2728 306 2450 153 
Q 2172 0 1784 0 
Q 1141 0 747 490 
Q 353 981 353 1791 
Q 353 2603 747 3093 
Q 1141 3584 1784 3584 
Q 2172 3584 2450 3431 
Q 2728 3278 2906 2969 
L 2906 3500 
L 3481 3500 
L 3481 434 
z
" transform="scale(0.015625)"/>
      <path id="DejaVuSans-45" d="M 628 4666 
L 3578 4666 
L 3578 4134 
L 1259 4134 
L 1259 2753 
L 3481 2753 
L 3481 2222 
L 1259 2222 
L 1259 531 
L 3634 531 
L 3634 0 
L 628 0 
L 628 4666 
z
" transform="scale(0.015625)"/>
      <path id="DejaVuSans-6c" d="M 603 4863 
L 1178 4863 
L 1178 0 
L 603 0 
L 603 4863 
z
" transform="scale(0.015625)"/>
      <path id="DejaVuSans-6d" d="M 3328 2828 
Q 3544 3216 3844 3400 
Q 4144 3584 4550 3584 
Q 5097 3584 5394 3201 
Q 5691 2819 5691 2113 
L 5691 0 
L 5113 0 
L 5113 2094 
Q 5113 2597 4934 2840 
Q 4756 3084 4391 3084 
Q 3944 3084 3684 2787 
Q 3425 2491 3425 1978 
L 3425 0 
L 2847 0 
L 2847 2094 
Q 2847 2600 2669 2842 
Q 2491 3084 2119 3084 
Q 1678 3084 1418 2786 
Q 1159 2488 1159 1978 
L 1159 0 
L 581 0 
L 581 3500 
L 1159 3500 
L 1159 2956 
Q 1356 3278 1631 3431 
Q 1906 3584 2284 3584 
Q 2666 3584 2933 3390 
Q 3200 3197 3328 2828 
z
" transform="scale(0.015625)"/>
      <path id="DejaVuSans-6e" d="M 3513 2113 
L 3513 0 
L 2938 0 
L 2938 2094 
Q 2938 2591 2744 2837 
Q 2550 3084 2163 3084 
Q 1697 3084 1428 2787 
Q 1159 2491 1159 1978 
L 1159 0 
L 581 0 
L 581 3500 
L 1159 3500 
L 1159 2956 
Q 1366 3272 1645 3428 
Q 1925 3584 2291 3584 
Q 2894 3584 3203 3211 
Q 3513 2838 3513 2113 
z
" transform="scale(0.015625)"/>
      <path id="DejaVuSans-73" d="M 2834 3397 
L 2834 2853 
Q 2591 2978 2328 3040 
Q 2066 3103 1784 3103 
Q 1356 3103 1142 2972 
Q 928 2841 928 2578 
Q 928 2378 1081 2264 
Q 1234 2150 1697 2047 
L 1894 2003 
Q 2506 1872 2764 1633 
Q 3022 1394 3022 966 
Q 3022 478 2636 193 
Q 2250 -91 1575 -91 
Q 1294 -91 989 -36 
Q 684 19 347 128 
L 347 722 
Q 666 556 975 473 
Q 1284 391 1588 391 
Q 1994 391 2212 530 
Q 2431 669 2431 922 
Q 2431 1156 2273 1281 
Q 2116 1406 1581 1522 
L 1381 1569 
Q 847 1681 609 1914 
Q 372 2147 372 2553 
Q 372 3047 722 3315 
Q 1072 3584 1716 3584 
Q 2034 3584 2315 3537 
Q 2597 3491 2834 3397 
z
" transform="scale(0.015625)"/>
     </defs>
     <use xlink:href="#DejaVuSans-57"/>
     <use xlink:href="#DejaVuSans-69" x="96.626953"/>
     <use xlink:href="#DejaVuSans-74" x="124.410156"/>
     <use xlink:href="#DejaVuSans-68" x="163.619141"/>
     <use xlink:href="#DejaVuSans-6f" x="226.998047"/>
     <use xlink:href="#DejaVuSans-75" x="288.179688"/>
     <use xlink:href="#DejaVuSans-74" x="351.558594"/>
     <use xlink:href="#DejaVuSans-20" x="390.767578"/>
     <use xlink:href="#DejaVuSans-43" x="422.554688"/>
     <use xlink:href="#DejaVuSans-6f" x="492.378906"/>
     <use xlink:href="#DejaVuSans-72" x="553.560547"/>
     <use xlink:href="#DejaVuSans-65" x="592.423828"/>
     <use xlink:href="#DejaVuSans-20" x="653.947266"/>
     <use xlink:href="#DejaVuSans-4c" x="685.734375"/>
     <use xlink:href="#DejaVuSans-69" x="741.447266"/>
     <use xlink:href="#DejaVuSans-67" x="769.230469"/>
     <use xlink:href="#DejaVuSans-68" x="832.707031"/>
     <use xlink:href="#DejaVuSans-74" x="896.085938"/>
     <use xlink:href="#DejaVuSans-20" x="935.294922"/>
     <use xlink:href="#DejaVuSans-45" x="967.082031"/>
     <use xlink:href="#DejaVuSans-6c" x="1030.265625"/>
     <use xlink:href="#DejaVuSans-65" x="1058.048828"/>
     <use xlink:href="#DejaVuSans-6d" x="1119.572266"/>
     <use xlink:href="#DejaVuSans-65" x="1216.984375"/>
     <use xlink:href="#DejaVuSans-6e" x="1278.507812"/>
     <use xlink:href="#DejaVuSans-74" x="1341.886719"/>
     <use xlink:href="#DejaVuSans-73" x="1381.095703"/>
    </g>
   </g>
  </g>
  <g id="axes_2">
   <g id="patch_42">
    <path d="M 844.790276 290.88 
C 844.790276 278.798277 842.88859 266.791503 839.155132 255.301103 
C 835.421675 243.810702 829.902767 232.979234 822.801308 223.204916 
L 729.654545 290.88 
z
" clip-path="url(#p3e5a20ca6f)" style="fill: #cd5c5c; stroke: #000000; stroke-width: 0.1; stroke-linejoin: miter"/>
   </g>
   <g id="patch_43">
    <path d="M 843.000317 290.88 
C 843.000317 278.986106 841.128196 267.165996 837.45278 255.85423 
C 833.777365 244.542465 828.344256 233.879389 821.353201 224.257027 
L 729.654545 290.88 
z
" clip-path="url(#p3e5a20ca6f)" style="fill: #fef392"/>
   </g>
   <g id="patch_44">
    <path d="M 784.535446 290.88 
C 784.535446 285.121094 783.628983 279.397914 781.849383 273.920869 
C 780.069783 268.443824 777.439126 263.280869 774.054126 258.621816 
L 729.654545 290.88 
z
" clip-path="url(#p3e5a20ca6f)" style="fill: #fff5ee"/>
   </g>
   <g id="patch_45">
    <path d="M 729.710718 290.88 
C 729.710718 290.874106 729.709791 290.868248 729.707969 290.862642 
C 729.706148 290.857036 729.703455 290.851751 729.69999 290.846982 
L 729.654545 290.88 
z
" clip-path="url(#p3e5a20ca6f)" style="fill: #d3d3d3"/>
   </g>
   <g id="patch_46">
    <path d="M 815.316645 228.642842 
C 808.785813 219.653923 800.880622 211.748732 791.891704 205.217901 
C 782.902785 198.687069 772.941664 193.611624 762.374556 190.178163 
L 729.654545 290.88 
z
" clip-path="url(#p3e5a20ca6f)" style="fill: #cd5c5c; stroke: #000000; stroke-width: 0.1; stroke-linejoin: miter"/>
   </g>
   <g id="patch_47">
    <path d="M 813.868538 229.694953 
C 807.448109 220.857991 799.676554 213.086437 790.839592 206.666008 
C 782.00263 200.245579 772.2099 195.255934 761.821428 191.880515 
L 729.654545 290.88 
z
" clip-path="url(#p3e5a20ca6f)" style="fill: #fde725"/>
   </g>
   <g id="patch_48">
    <path d="M 788.060046 248.44592 
C 783.607242 242.317162 778.217383 236.927303 772.088625 232.4745 
C 765.959867 228.021696 759.168249 224.561194 751.963461 222.220217 
L 729.654545 290.88 
z
" clip-path="url(#p3e5a20ca6f)" style="fill: #fff5ee"/>
   </g>
   <g id="patch_49">
    <path d="M 746.407155 278.708517 
C 745.129945 276.950588 743.583957 275.4046 741.826029 274.12739 
C 740.0681 272.850181 738.120042 271.857595 736.053473 271.186126 
L 729.654545 290.88 
z
" clip-path="url(#p3e5a20ca6f)" style="fill: #d3d3d3"/>
   </g>
   <g id="patch_50">
    <path d="M 772.840987 157.965801 
C 758.893688 153.434049 744.319604 151.12574 729.654545 151.12574 
C 714.989487 151.12574 700.415403 153.434049 686.468104 157.965801 
L 729.654545 290.88 
z
" clip-path="url(#p3e5a20ca6f)" style="fill: #cd5c5c; stroke: #000000; stroke-width: 0.1; stroke-linejoin: miter"/>
   </g>
   <g id="patch_51">
    <path d="M 772.441927 159.19398 
C 758.623507 154.704103 744.184093 152.417124 729.654545 152.417124 
C 715.124998 152.417124 700.685584 154.704103 686.867164 159.19398 
L 729.654545 290.88 
z
" clip-path="url(#p3e5a20ca6f)" style="fill: #ade4b1"/>
   </g>
   <g id="patch_52">
    <path d="M 750.006655 228.242646 
C 743.433829 226.107006 736.565624 225.019189 729.654545 225.019189 
C 722.743467 225.019189 715.875262 226.107006 709.302436 228.242646 
L 729.654545 290.88 
z
" clip-path="url(#p3e5a20ca6f)" style="fill: #fff5ee"/>
   </g>
   <g id="patch_53">
    <path d="M 729.675724 290.814821 
C 729.668884 290.812598 729.661737 290.811466 729.654545 290.811466 
C 729.647354 290.811466 729.640207 290.812598 729.633367 290.814821 
L 729.654545 290.88 
z
" clip-path="url(#p3e5a20ca6f)" style="fill: #d3d3d3"/>
   </g>
   <g id="patch_54">
    <path d="M 689.982048 168.780607 
C 677.169596 172.943624 665.091893 179.097522 654.19297 187.016052 
C 643.294048 194.934583 633.709128 204.519502 625.790598 215.418425 
L 729.654545 290.88 
z
" clip-path="url(#p3e5a20ca6f)" style="fill: #cd5c5c; stroke: #000000; stroke-width: 0.1; stroke-linejoin: miter"/>
   </g>
   <g id="patch_55">
    <path d="M 690.381107 170.008785 
C 677.697534 174.129928 665.741318 180.221924 654.952027 188.060804 
C 644.162735 195.899683 634.674228 205.388189 626.835349 216.177481 
L 729.654545 290.88 
z
" clip-path="url(#p3e5a20ca6f)" style="fill: #5cc863"/>
   </g>
   <g id="patch_56">
    <path d="M 702.869594 208.444396 
C 694.219247 211.255065 686.064966 215.409878 678.706541 220.756087 
C 671.348115 226.102296 664.876841 232.57357 659.530633 239.931995 
L 729.654545 290.88 
z
" clip-path="url(#p3e5a20ca6f)" style="fill: #fff5ee"/>
   </g>
   <g id="patch_57">
    <path d="M 729.635262 290.820651 
C 729.629034 290.822675 729.623163 290.825666 729.617866 290.829515 
C 729.612568 290.833364 729.607909 290.838023 729.60406 290.84332 
L 729.654545 290.88 
z
" clip-path="url(#p3e5a20ca6f)" style="fill: #d3d3d3"/>
   </g>
   <g id="patch_58">
    <path d="M 603.753527 199.407556 
C 594.154902 212.61893 586.695318 227.259189 581.649022 242.79009 
C 576.602726 258.320992 574.032329 274.549844 574.032329 290.88 
L 729.654545 290.88 
z
" clip-path="url(#p3e5a20ca6f)" style="fill: #cd5c5c; stroke: #000000; stroke-width: 0.1; stroke-linejoin: miter"/>
   </g>
   <g id="patch_59">
    <path d="M 604.616657 200.034656 
C 595.083837 213.155458 587.675392 227.695349 582.663692 243.119777 
C 577.651992 258.544204 575.099216 274.661797 575.099216 290.88 
L 729.654545 290.88 
z
" clip-path="url(#p3e5a20ca6f)" style="fill: #90c7c6"/>
   </g>
   <g id="patch_60">
    <path d="M 670.761426 248.091644 
C 666.271447 254.27157 662.782053 261.119891 660.421531 268.38483 
C 658.061009 275.649769 656.858646 283.241191 656.858646 290.88 
L 729.654545 290.88 
z
" clip-path="url(#p3e5a20ca6f)" style="fill: #fff5ee"/>
   </g>
   <g id="patch_61">
    <path d="M 729.592618 290.835007 
C 729.587897 290.841505 729.584227 290.848707 729.581745 290.856346 
C 729.579263 290.863985 729.577999 290.871968 729.577999 290.88 
L 729.654545 290.88 
z
" clip-path="url(#p3e5a20ca6f)" style="fill: #d3d3d3"/>
   </g>
   <g id="patch_62">
    <path d="M 586.479966 290.88 
C 586.479966 305.903968 588.844767 320.834736 593.487428 335.123378 
C 598.13009 349.412021 604.99301 362.881261 613.823877 375.035907 
L 729.654545 290.88 
z
" clip-path="url(#p3e5a20ca6f)" style="fill: #cd5c5c; stroke: #000000; stroke-width: 0.1; stroke-linejoin: miter"/>
   </g>
   <g id="patch_63">
    <path d="M 587.546853 290.88 
C 587.546853 305.792015 589.894032 320.611523 594.502098 334.793692 
C 599.110164 348.975861 605.921945 362.344733 614.687007 374.408806 
L 729.654545 290.88 
z
" clip-path="url(#p3e5a20ca6f)" style="fill: #21908d"/>
   </g>
   <g id="patch_64">
    <path d="M 633.778711 290.88 
C 633.778711 300.940693 635.362283 310.938975 638.471208 320.507262 
C 641.580133 330.07555 646.175839 339.09513 652.089366 347.234402 
L 729.654545 290.88 
z
" clip-path="url(#p3e5a20ca6f)" style="fill: #fff5ee"/>
   </g>
   <g id="patch_65">
    <path d="M 729.584919 290.88 
C 729.584919 290.887306 729.586069 290.894567 729.588327 290.901516 
C 729.590584 290.908464 729.593922 290.915015 729.598216 290.920925 
L 729.654545 290.88 
z
" clip-path="url(#p3e5a20ca6f)" style="fill: #d3d3d3"/>
   </g>
   <g id="patch_66">
    <path d="M 593.881046 389.525221 
C 604.232344 403.77256 616.761985 416.302202 631.009324 426.653499 
C 645.256663 437.004797 661.044932 445.049322 677.793684 450.491321 
L 729.654545 290.88 
z
" clip-path="url(#p3e5a20ca6f)" style="fill: #cd5c5c; stroke: #000000; stroke-width: 0.1; stroke-linejoin: miter"/>
   </g>
   <g id="patch_67">
    <path d="M 594.6348 388.977587 
C 604.928632 403.145831 617.388715 415.605913 631.556959 425.899745 
C 645.725202 436.193577 661.425823 444.193442 678.081592 449.60523 
L 729.654545 290.88 
z
" clip-path="url(#p3e5a20ca6f)" style="fill: #9da8c5"/>
   </g>
   <g id="patch_68">
    <path d="M 666.598274 336.693063 
C 671.40565 343.309848 677.224698 349.128895 683.841483 353.936271 
C 690.458268 358.743647 697.790696 362.479705 705.569193 365.007092 
L 729.654545 290.88 
z
" clip-path="url(#p3e5a20ca6f)" style="fill: #fff5ee"/>
   </g>
   <g id="patch_69">
    <path d="M 729.587678 290.928582 
C 729.592776 290.935599 729.598946 290.94177 729.605963 290.946868 
C 729.61298 290.951966 729.620756 290.955928 729.629004 290.958608 
L 729.654545 290.88 
z
" clip-path="url(#p3e5a20ca6f)" style="fill: #d3d3d3"/>
   </g>
   <g id="patch_70">
    <path d="M 682.054694 437.377278 
C 697.427329 442.37215 713.490801 444.916354 729.654545 444.916354 
C 745.81829 444.916354 761.881762 442.37215 777.254396 437.377278 
L 729.654545 290.88 
z
" clip-path="url(#p3e5a20ca6f)" style="fill: #cd5c5c; stroke: #000000; stroke-width: 0.1; stroke-linejoin: miter"/>
   </g>
   <g id="patch_71">
    <path d="M 682.342603 436.491187 
C 697.622255 441.455847 713.588568 443.984662 729.654545 443.984662 
C 745.720523 443.984662 761.686836 441.455847 776.966488 436.491187 
L 729.654545 290.88 
z
" clip-path="url(#p3e5a20ca6f)" style="fill: #3b518b"/>
   </g>
   <g id="patch_72">
    <path d="M 697.930444 388.516744 
C 708.175918 391.8457 718.881817 393.541348 729.654545 393.541348 
C 740.427274 393.541348 751.133173 391.8457 761.378647 388.516744 
L 729.654545 290.88 
z
" clip-path="url(#p3e5a20ca6f)" style="fill: #fff5ee"/>
   </g>
   <g id="patch_73">
    <path d="M 729.631406 290.951216 
C 729.638879 290.953644 729.646688 290.954881 729.654545 290.954881 
C 729.662403 290.954881 729.670212 290.953644 729.677685 290.951216 
L 729.654545 290.88 
z
" clip-path="url(#p3e5a20ca6f)" style="fill: #d3d3d3"/>
   </g>
   <g id="patch_74">
    <path d="M 784.519108 459.735761 
C 802.237921 453.97857 818.940623 445.468119 834.013145 434.51729 
C 849.085668 423.566461 862.341007 410.311122 873.291835 395.2386 
L 729.654545 290.88 
z
" clip-path="url(#p3e5a20ca6f)" style="fill: #cd5c5c; stroke: #000000; stroke-width: 0.1; stroke-linejoin: miter"/>
   </g>
   <g id="patch_75">
    <path d="M 784.259924 458.938073 
C 801.895031 453.208079 818.518828 444.737832 833.520147 433.838736 
C 848.521465 422.93964 861.714185 409.74692 872.613281 394.745601 
L 729.654545 290.88 
z
" clip-path="url(#p3e5a20ca6f)" style="fill: #a280aa"/>
   </g>
   <g id="patch_76">
    <path d="M 755.004273 368.898439 
C 763.191107 366.238376 770.908456 362.30619 777.872593 357.246448 
C 784.83673 352.186707 790.961252 346.062184 796.020994 339.098047 
L 729.654545 290.88 
z
" clip-path="url(#p3e5a20ca6f)" style="fill: #fff5ee"/>
   </g>
   <g id="patch_77">
    <path d="M 729.681542 290.963087 
C 729.690261 290.960254 729.698479 290.956066 729.705896 290.950678 
C 729.713312 290.945289 729.719835 290.938767 729.725223 290.93135 
L 729.654545 290.88 
z
" clip-path="url(#p3e5a20ca6f)" style="fill: #d3d3d3"/>
   </g>
   <g id="patch_78">
    <path d="M 861.432212 386.622079 
C 871.478869 372.794041 879.286643 357.470422 884.568483 341.21459 
C 889.850323 324.958757 892.540699 307.972394 892.540699 290.88 
L 729.654545 290.88 
z
" clip-path="url(#p3e5a20ca6f)" style="fill: #cd5c5c; stroke: #000000; stroke-width: 0.1; stroke-linejoin: miter"/>
   </g>
   <g id="patch_79">
    <path d="M 860.753658 386.12908 
C 870.748582 372.372247 878.516152 357.127533 883.770795 340.955405 
C 889.025438 324.783277 891.70196 307.884382 891.70196 290.88 
L 729.654545 290.88 
z
" clip-path="url(#p3e5a20ca6f)" style="fill: #440154"/>
   </g>
   <g id="patch_80">
    <path d="M 817.085765 354.402499 
C 823.751473 345.227939 828.931738 335.061097 832.436108 324.275754 
C 835.940479 313.490411 837.725476 302.220381 837.725476 290.88 
L 729.654545 290.88 
z
" clip-path="url(#p3e5a20ca6f)" style="fill: #fff5ee"/>
   </g>
   <g id="patch_81">
    <path d="M 729.718598 290.926537 
C 729.723481 290.919815 729.727276 290.912367 729.729843 290.904466 
C 729.732411 290.896564 729.733718 290.888308 729.733718 290.88 
L 729.654545 290.88 
z
" clip-path="url(#p3e5a20ca6f)" style="fill: #d3d3d3"/>
   </g>
   <g id="text_12">
    <!-- 6432 km -->
    <g transform="translate(840.109037 236.418394) rotate(-288) scale(0.08 -0.08)">
     <defs>
      <path id="DejaVuSans-36" d="M 2113 2584 
Q 1688 2584 1439 2293 
Q 1191 2003 1191 1497 
Q 1191 994 1439 701 
Q 1688 409 2113 409 
Q 2538 409 2786 701 
Q 3034 994 3034 1497 
Q 3034 2003 2786 2293 
Q 2538 2584 2113 2584 
z
M 3366 4563 
L 3366 3988 
Q 3128 4100 2886 4159 
Q 2644 4219 2406 4219 
Q 1781 4219 1451 3797 
Q 1122 3375 1075 2522 
Q 1259 2794 1537 2939 
Q 1816 3084 2150 3084 
Q 2853 3084 3261 2657 
Q 3669 2231 3669 1497 
Q 3669 778 3244 343 
Q 2819 -91 2113 -91 
Q 1303 -91 875 529 
Q 447 1150 447 2328 
Q 447 3434 972 4092 
Q 1497 4750 2381 4750 
Q 2619 4750 2861 4703 
Q 3103 4656 3366 4563 
z
" transform="scale(0.015625)"/>
      <path id="DejaVuSans-34" d="M 2419 4116 
L 825 1625 
L 2419 1625 
L 2419 4116 
z
M 2253 4666 
L 3047 4666 
L 3047 1625 
L 3713 1625 
L 3713 1100 
L 3047 1100 
L 3047 0 
L 2419 0 
L 2419 1100 
L 313 1100 
L 313 1709 
L 2253 4666 
z
" transform="scale(0.015625)"/>
      <path id="DejaVuSans-33" d="M 2597 2516 
Q 3050 2419 3304 2112 
Q 3559 1806 3559 1356 
Q 3559 666 3084 287 
Q 2609 -91 1734 -91 
Q 1441 -91 1130 -33 
Q 819 25 488 141 
L 488 750 
Q 750 597 1062 519 
Q 1375 441 1716 441 
Q 2309 441 2620 675 
Q 2931 909 2931 1356 
Q 2931 1769 2642 2001 
Q 2353 2234 1838 2234 
L 1294 2234 
L 1294 2753 
L 1863 2753 
Q 2328 2753 2575 2939 
Q 2822 3125 2822 3475 
Q 2822 3834 2567 4026 
Q 2313 4219 1838 4219 
Q 1578 4219 1281 4162 
Q 984 4106 628 3988 
L 628 4550 
Q 988 4650 1302 4700 
Q 1616 4750 1894 4750 
Q 2613 4750 3031 4423 
Q 3450 4097 3450 3541 
Q 3450 3153 3228 2886 
Q 3006 2619 2597 2516 
z
" transform="scale(0.015625)"/>
      <path id="DejaVuSans-32" d="M 1228 531 
L 3431 531 
L 3431 0 
L 469 0 
L 469 531 
Q 828 903 1448 1529 
Q 2069 2156 2228 2338 
Q 2531 2678 2651 2914 
Q 2772 3150 2772 3378 
Q 2772 3750 2511 3984 
Q 2250 4219 1831 4219 
Q 1534 4219 1204 4116 
Q 875 4013 500 3803 
L 500 4441 
Q 881 4594 1212 4672 
Q 1544 4750 1819 4750 
Q 2544 4750 2975 4387 
Q 3406 4025 3406 3419 
Q 3406 3131 3298 2873 
Q 3191 2616 2906 2266 
Q 2828 2175 2409 1742 
Q 1991 1309 1228 531 
z
" transform="scale(0.015625)"/>
      <path id="DejaVuSans-6b" d="M 581 4863 
L 1159 4863 
L 1159 1991 
L 2875 3500 
L 3609 3500 
L 1753 1863 
L 3688 0 
L 2938 0 
L 1159 1709 
L 1159 0 
L 581 0 
L 581 4863 
z
" transform="scale(0.015625)"/>
     </defs>
     <use xlink:href="#DejaVuSans-36"/>
     <use xlink:href="#DejaVuSans-34" x="63.623047"/>
     <use xlink:href="#DejaVuSans-33" x="127.246094"/>
     <use xlink:href="#DejaVuSans-32" x="190.869141"/>
     <use xlink:href="#DejaVuSans-20" x="254.492188"/>
     <use xlink:href="#DejaVuSans-6b" x="286.279297"/>
     <use xlink:href="#DejaVuSans-6d" x="344.189453"/>
    </g>
   </g>
   <g id="text_13">
    <!-- 5915 km -->
    <g transform="translate(781.564451 189.380778) rotate(-324) scale(0.08 -0.08)">
     <defs>
      <path id="DejaVuSans-35" d="M 691 4666 
L 3169 4666 
L 3169 4134 
L 1269 4134 
L 1269 2991 
Q 1406 3038 1543 3061 
Q 1681 3084 1819 3084 
Q 2600 3084 3056 2656 
Q 3513 2228 3513 1497 
Q 3513 744 3044 326 
Q 2575 -91 1722 -91 
Q 1428 -91 1123 -41 
Q 819 9 494 109 
L 494 744 
Q 775 591 1075 516 
Q 1375 441 1709 441 
Q 2250 441 2565 725 
Q 2881 1009 2881 1497 
Q 2881 1984 2565 2268 
Q 2250 2553 1709 2553 
Q 1456 2553 1204 2497 
Q 953 2441 691 2322 
L 691 4666 
z
" transform="scale(0.015625)"/>
      <path id="DejaVuSans-39" d="M 703 97 
L 703 672 
Q 941 559 1184 500 
Q 1428 441 1663 441 
Q 2288 441 2617 861 
Q 2947 1281 2994 2138 
Q 2813 1869 2534 1725 
Q 2256 1581 1919 1581 
Q 1219 1581 811 2004 
Q 403 2428 403 3163 
Q 403 3881 828 4315 
Q 1253 4750 1959 4750 
Q 2769 4750 3195 4129 
Q 3622 3509 3622 2328 
Q 3622 1225 3098 567 
Q 2575 -91 1691 -91 
Q 1453 -91 1209 -44 
Q 966 3 703 97 
z
M 1959 2075 
Q 2384 2075 2632 2365 
Q 2881 2656 2881 3163 
Q 2881 3666 2632 3958 
Q 2384 4250 1959 4250 
Q 1534 4250 1286 3958 
Q 1038 3666 1038 3163 
Q 1038 2656 1286 2365 
Q 1534 2075 1959 2075 
z
" transform="scale(0.015625)"/>
      <path id="DejaVuSans-31" d="M 794 531 
L 1825 531 
L 1825 4091 
L 703 3866 
L 703 4441 
L 1819 4666 
L 2450 4666 
L 2450 531 
L 3481 531 
L 3481 0 
L 794 0 
L 794 531 
z
" transform="scale(0.015625)"/>
     </defs>
     <use xlink:href="#DejaVuSans-35"/>
     <use xlink:href="#DejaVuSans-39" x="63.623047"/>
     <use xlink:href="#DejaVuSans-31" x="127.246094"/>
     <use xlink:href="#DejaVuSans-35" x="190.869141"/>
     <use xlink:href="#DejaVuSans-20" x="254.492188"/>
     <use xlink:href="#DejaVuSans-6b" x="286.279297"/>
     <use xlink:href="#DejaVuSans-6d" x="344.189453"/>
    </g>
   </g>
   <g id="text_14">
    <!-- 7808 km -->
    <g transform="translate(711.990795 144.383446) scale(0.08 -0.08)">
     <defs>
      <path id="DejaVuSans-37" d="M 525 4666 
L 3525 4666 
L 3525 4397 
L 1831 0 
L 1172 0 
L 2766 4134 
L 525 4134 
L 525 4666 
z
" transform="scale(0.015625)"/>
      <path id="DejaVuSans-38" d="M 2034 2216 
Q 1584 2216 1326 1975 
Q 1069 1734 1069 1313 
Q 1069 891 1326 650 
Q 1584 409 2034 409 
Q 2484 409 2743 651 
Q 3003 894 3003 1313 
Q 3003 1734 2745 1975 
Q 2488 2216 2034 2216 
z
M 1403 2484 
Q 997 2584 770 2862 
Q 544 3141 544 3541 
Q 544 4100 942 4425 
Q 1341 4750 2034 4750 
Q 2731 4750 3128 4425 
Q 3525 4100 3525 3541 
Q 3525 3141 3298 2862 
Q 3072 2584 2669 2484 
Q 3125 2378 3379 2068 
Q 3634 1759 3634 1313 
Q 3634 634 3220 271 
Q 2806 -91 2034 -91 
Q 1263 -91 848 271 
Q 434 634 434 1313 
Q 434 1759 690 2068 
Q 947 2378 1403 2484 
z
M 1172 3481 
Q 1172 3119 1398 2916 
Q 1625 2713 2034 2713 
Q 2441 2713 2670 2916 
Q 2900 3119 2900 3481 
Q 2900 3844 2670 4047 
Q 2441 4250 2034 4250 
Q 1625 4250 1398 4047 
Q 1172 3844 1172 3481 
z
" transform="scale(0.015625)"/>
      <path id="DejaVuSans-30" d="M 2034 4250 
Q 1547 4250 1301 3770 
Q 1056 3291 1056 2328 
Q 1056 1369 1301 889 
Q 1547 409 2034 409 
Q 2525 409 2770 889 
Q 3016 1369 3016 2328 
Q 3016 3291 2770 3770 
Q 2525 4250 2034 4250 
z
M 2034 4750 
Q 2819 4750 3233 4129 
Q 3647 3509 3647 2328 
Q 3647 1150 3233 529 
Q 2819 -91 2034 -91 
Q 1250 -91 836 529 
Q 422 1150 422 2328 
Q 422 3509 836 4129 
Q 1250 4750 2034 4750 
z
" transform="scale(0.015625)"/>
     </defs>
     <use xlink:href="#DejaVuSans-37"/>
     <use xlink:href="#DejaVuSans-38" x="63.623047"/>
     <use xlink:href="#DejaVuSans-30" x="127.246094"/>
     <use xlink:href="#DejaVuSans-38" x="190.869141"/>
     <use xlink:href="#DejaVuSans-20" x="254.492188"/>
     <use xlink:href="#DejaVuSans-6b" x="286.279297"/>
     <use xlink:href="#DejaVuSans-6d" x="344.189453"/>
    </g>
   </g>
   <g id="text_15">
    <!-- 7172 km -->
    <g transform="translate(635.939675 191.943913) rotate(-36) scale(0.08 -0.08)">
     <use xlink:href="#DejaVuSans-37"/>
     <use xlink:href="#DejaVuSans-31" x="63.623047"/>
     <use xlink:href="#DejaVuSans-37" x="127.246094"/>
     <use xlink:href="#DejaVuSans-32" x="190.869141"/>
     <use xlink:href="#DejaVuSans-20" x="254.492188"/>
     <use xlink:href="#DejaVuSans-6b" x="286.279297"/>
     <use xlink:href="#DejaVuSans-6d" x="344.189453"/>
    </g>
   </g>
   <g id="text_16">
    <!-- 8694 km -->
    <g transform="translate(569.77832 257.505831) rotate(-72) scale(0.08 -0.08)">
     <use xlink:href="#DejaVuSans-38"/>
     <use xlink:href="#DejaVuSans-36" x="63.623047"/>
     <use xlink:href="#DejaVuSans-39" x="127.246094"/>
     <use xlink:href="#DejaVuSans-34" x="190.869141"/>
     <use xlink:href="#DejaVuSans-20" x="254.492188"/>
     <use xlink:href="#DejaVuSans-6b" x="286.279297"/>
     <use xlink:href="#DejaVuSans-6d" x="344.189453"/>
    </g>
   </g>
   <g id="text_17">
    <!-- 7999 km -->
    <g transform="translate(577.417811 321.771948) rotate(-288) scale(0.08 -0.08)">
     <use xlink:href="#DejaVuSans-37"/>
     <use xlink:href="#DejaVuSans-39" x="63.623047"/>
     <use xlink:href="#DejaVuSans-39" x="127.246094"/>
     <use xlink:href="#DejaVuSans-39" x="190.869141"/>
     <use xlink:href="#DejaVuSans-20" x="254.492188"/>
     <use xlink:href="#DejaVuSans-6b" x="286.279297"/>
     <use xlink:href="#DejaVuSans-6d" x="344.189453"/>
    </g>
   </g>
   <g id="text_18">
    <!-- 9376 km -->
    <g transform="translate(610.160957 425.297449) rotate(-324) scale(0.08 -0.08)">
     <use xlink:href="#DejaVuSans-39"/>
     <use xlink:href="#DejaVuSans-33" x="63.623047"/>
     <use xlink:href="#DejaVuSans-37" x="127.246094"/>
     <use xlink:href="#DejaVuSans-36" x="190.869141"/>
     <use xlink:href="#DejaVuSans-20" x="254.492188"/>
     <use xlink:href="#DejaVuSans-6b" x="286.279297"/>
     <use xlink:href="#DejaVuSans-6d" x="344.189453"/>
    </g>
   </g>
   <g id="text_19">
    <!-- 8606 km -->
    <g transform="translate(711.990795 456.073649) scale(0.08 -0.08)">
     <use xlink:href="#DejaVuSans-38"/>
     <use xlink:href="#DejaVuSans-36" x="63.623047"/>
     <use xlink:href="#DejaVuSans-30" x="127.246094"/>
     <use xlink:href="#DejaVuSans-36" x="190.869141"/>
     <use xlink:href="#DejaVuSans-20" x="254.492188"/>
     <use xlink:href="#DejaVuSans-6b" x="286.279297"/>
     <use xlink:href="#DejaVuSans-6d" x="344.189453"/>
    </g>
   </g>
   <g id="text_20">
    <!-- 9919 km -->
    <g transform="translate(826.280965 453.926223) rotate(-36) scale(0.08 -0.08)">
     <use xlink:href="#DejaVuSans-39"/>
     <use xlink:href="#DejaVuSans-39" x="63.623047"/>
     <use xlink:href="#DejaVuSans-31" x="127.246094"/>
     <use xlink:href="#DejaVuSans-39" x="190.869141"/>
     <use xlink:href="#DejaVuSans-20" x="254.492188"/>
     <use xlink:href="#DejaVuSans-6b" x="286.279297"/>
     <use xlink:href="#DejaVuSans-6d" x="344.189453"/>
    </g>
   </g>
   <g id="text_21">
    <!-- 9100 km -->
    <g transform="translate(889.721302 361.461608) rotate(-72) scale(0.08 -0.08)">
     <use xlink:href="#DejaVuSans-39"/>
     <use xlink:href="#DejaVuSans-31" x="63.623047"/>
     <use xlink:href="#DejaVuSans-30" x="127.246094"/>
     <use xlink:href="#DejaVuSans-30" x="190.869141"/>
     <use xlink:href="#DejaVuSans-20" x="254.492188"/>
     <use xlink:href="#DejaVuSans-6b" x="286.279297"/>
     <use xlink:href="#DejaVuSans-6d" x="344.189453"/>
    </g>
   </g>
   <g id="text_22">
    <!-- With Core Light Elements -->
    <g transform="translate(653.49017 107.334545) scale(0.12 -0.12)">
     <use xlink:href="#DejaVuSans-57"/>
     <use xlink:href="#DejaVuSans-69" x="96.626953"/>
     <use xlink:href="#DejaVuSans-74" x="124.410156"/>
     <use xlink:href="#DejaVuSans-68" x="163.619141"/>
     <use xlink:href="#DejaVuSans-20" x="226.998047"/>
     <use xlink:href="#DejaVuSans-43" x="258.785156"/>
     <use xlink:href="#DejaVuSans-6f" x="328.609375"/>
     <use xlink:href="#DejaVuSans-72" x="389.791016"/>
     <use xlink:href="#DejaVuSans-65" x="428.654297"/>
     <use xlink:href="#DejaVuSans-20" x="490.177734"/>
     <use xlink:href="#DejaVuSans-4c" x="521.964844"/>
     <use xlink:href="#DejaVuSans-69" x="577.677734"/>
     <use xlink:href="#DejaVuSans-67" x="605.460938"/>
     <use xlink:href="#DejaVuSans-68" x="668.9375"/>
     <use xlink:href="#DejaVuSans-74" x="732.316406"/>
     <use xlink:href="#DejaVuSans-20" x="771.525391"/>
     <use xlink:href="#DejaVuSans-45" x="803.3125"/>
     <use xlink:href="#DejaVuSans-6c" x="866.496094"/>
     <use xlink:href="#DejaVuSans-65" x="894.279297"/>
     <use xlink:href="#DejaVuSans-6d" x="955.802734"/>
     <use xlink:href="#DejaVuSans-65" x="1053.214844"/>
     <use xlink:href="#DejaVuSans-6e" x="1114.738281"/>
     <use xlink:href="#DejaVuSans-74" x="1178.117188"/>
     <use xlink:href="#DejaVuSans-73" x="1217.326172"/>
    </g>
   </g>
   <g id="legend_1">
    <g id="patch_82">
     <path d="M 438.072869 194.72517 
L 580.618182 194.72517 
Q 582.618182 194.72517 582.618182 192.72517 
L 582.618182 120.334545 
Q 582.618182 118.334545 580.618182 118.334545 
L 438.072869 118.334545 
Q 436.072869 118.334545 436.072869 120.334545 
L 436.072869 192.72517 
Q 436.072869 194.72517 438.072869 194.72517 
z
" style="fill: #ffffff; opacity: 0.8; stroke: #cccccc; stroke-linejoin: miter"/>
    </g>
    <g id="text_23">
     <!-- Interior Structure -->
     <g transform="translate(466.260369 129.932983) scale(0.1 -0.1)">
      <defs>
       <path id="DejaVuSans-49" d="M 628 4666 
L 1259 4666 
L 1259 0 
L 628 0 
L 628 4666 
z
" transform="scale(0.015625)"/>
       <path id="DejaVuSans-53" d="M 3425 4513 
L 3425 3897 
Q 3066 4069 2747 4153 
Q 2428 4238 2131 4238 
Q 1616 4238 1336 4038 
Q 1056 3838 1056 3469 
Q 1056 3159 1242 3001 
Q 1428 2844 1947 2747 
L 2328 2669 
Q 3034 2534 3370 2195 
Q 3706 1856 3706 1288 
Q 3706 609 3251 259 
Q 2797 -91 1919 -91 
Q 1588 -91 1214 -16 
Q 841 59 441 206 
L 441 856 
Q 825 641 1194 531 
Q 1563 422 1919 422 
Q 2459 422 2753 634 
Q 3047 847 3047 1241 
Q 3047 1584 2836 1778 
Q 2625 1972 2144 2069 
L 1759 2144 
Q 1053 2284 737 2584 
Q 422 2884 422 3419 
Q 422 4038 858 4394 
Q 1294 4750 2059 4750 
Q 2388 4750 2728 4690 
Q 3069 4631 3425 4513 
z
" transform="scale(0.015625)"/>
       <path id="DejaVuSans-63" d="M 3122 3366 
L 3122 2828 
Q 2878 2963 2633 3030 
Q 2388 3097 2138 3097 
Q 1578 3097 1268 2742 
Q 959 2388 959 1747 
Q 959 1106 1268 751 
Q 1578 397 2138 397 
Q 2388 397 2633 464 
Q 2878 531 3122 666 
L 3122 134 
Q 2881 22 2623 -34 
Q 2366 -91 2075 -91 
Q 1284 -91 818 406 
Q 353 903 353 1747 
Q 353 2603 823 3093 
Q 1294 3584 2113 3584 
Q 2378 3584 2631 3529 
Q 2884 3475 3122 3366 
z
" transform="scale(0.015625)"/>
      </defs>
      <use xlink:href="#DejaVuSans-49"/>
      <use xlink:href="#DejaVuSans-6e" x="29.492188"/>
      <use xlink:href="#DejaVuSans-74" x="92.871094"/>
      <use xlink:href="#DejaVuSans-65" x="132.080078"/>
      <use xlink:href="#DejaVuSans-72" x="193.603516"/>
      <use xlink:href="#DejaVuSans-69" x="234.716797"/>
      <use xlink:href="#DejaVuSans-6f" x="262.5"/>
      <use xlink:href="#DejaVuSans-72" x="323.681641"/>
      <use xlink:href="#DejaVuSans-20" x="364.794922"/>
      <use xlink:href="#DejaVuSans-53" x="396.582031"/>
      <use xlink:href="#DejaVuSans-74" x="460.058594"/>
      <use xlink:href="#DejaVuSans-72" x="499.267578"/>
      <use xlink:href="#DejaVuSans-75" x="540.380859"/>
      <use xlink:href="#DejaVuSans-63" x="603.759766"/>
      <use xlink:href="#DejaVuSans-74" x="658.740234"/>
      <use xlink:href="#DejaVuSans-75" x="697.949219"/>
      <use xlink:href="#DejaVuSans-72" x="761.328125"/>
      <use xlink:href="#DejaVuSans-65" x="800.191406"/>
     </g>
    </g>
    <g id="patch_83">
     <path d="M 440.072869 144.611108 
L 460.072869 144.611108 
L 460.072869 137.611108 
L 440.072869 137.611108 
z
" style="fill: #cd5c5c; stroke: #000000; stroke-width: 0.1; stroke-linejoin: miter"/>
    </g>
    <g id="text_24">
     <!-- Lithosphere and Crust -->
     <g transform="translate(468.072869 144.611108) scale(0.1 -0.1)">
      <defs>
       <path id="DejaVuSans-70" d="M 1159 525 
L 1159 -1331 
L 581 -1331 
L 581 3500 
L 1159 3500 
L 1159 2969 
Q 1341 3281 1617 3432 
Q 1894 3584 2278 3584 
Q 2916 3584 3314 3078 
Q 3713 2572 3713 1747 
Q 3713 922 3314 415 
Q 2916 -91 2278 -91 
Q 1894 -91 1617 61 
Q 1341 213 1159 525 
z
M 3116 1747 
Q 3116 2381 2855 2742 
Q 2594 3103 2138 3103 
Q 1681 3103 1420 2742 
Q 1159 2381 1159 1747 
Q 1159 1113 1420 752 
Q 1681 391 2138 391 
Q 2594 391 2855 752 
Q 3116 1113 3116 1747 
z
" transform="scale(0.015625)"/>
       <path id="DejaVuSans-61" d="M 2194 1759 
Q 1497 1759 1228 1600 
Q 959 1441 959 1056 
Q 959 750 1161 570 
Q 1363 391 1709 391 
Q 2188 391 2477 730 
Q 2766 1069 2766 1631 
L 2766 1759 
L 2194 1759 
z
M 3341 1997 
L 3341 0 
L 2766 0 
L 2766 531 
Q 2569 213 2275 61 
Q 1981 -91 1556 -91 
Q 1019 -91 701 211 
Q 384 513 384 1019 
Q 384 1609 779 1909 
Q 1175 2209 1959 2209 
L 2766 2209 
L 2766 2266 
Q 2766 2663 2505 2880 
Q 2244 3097 1772 3097 
Q 1472 3097 1187 3025 
Q 903 2953 641 2809 
L 641 3341 
Q 956 3463 1253 3523 
Q 1550 3584 1831 3584 
Q 2591 3584 2966 3190 
Q 3341 2797 3341 1997 
z
" transform="scale(0.015625)"/>
       <path id="DejaVuSans-64" d="M 2906 2969 
L 2906 4863 
L 3481 4863 
L 3481 0 
L 2906 0 
L 2906 525 
Q 2725 213 2448 61 
Q 2172 -91 1784 -91 
Q 1150 -91 751 415 
Q 353 922 353 1747 
Q 353 2572 751 3078 
Q 1150 3584 1784 3584 
Q 2172 3584 2448 3432 
Q 2725 3281 2906 2969 
z
M 947 1747 
Q 947 1113 1208 752 
Q 1469 391 1925 391 
Q 2381 391 2643 752 
Q 2906 1113 2906 1747 
Q 2906 2381 2643 2742 
Q 2381 3103 1925 3103 
Q 1469 3103 1208 2742 
Q 947 2381 947 1747 
z
" transform="scale(0.015625)"/>
      </defs>
      <use xlink:href="#DejaVuSans-4c"/>
      <use xlink:href="#DejaVuSans-69" x="55.712891"/>
      <use xlink:href="#DejaVuSans-74" x="83.496094"/>
      <use xlink:href="#DejaVuSans-68" x="122.705078"/>
      <use xlink:href="#DejaVuSans-6f" x="186.083984"/>
      <use xlink:href="#DejaVuSans-73" x="247.265625"/>
      <use xlink:href="#DejaVuSans-70" x="299.365234"/>
      <use xlink:href="#DejaVuSans-68" x="362.841797"/>
      <use xlink:href="#DejaVuSans-65" x="426.220703"/>
      <use xlink:href="#DejaVuSans-72" x="487.744141"/>
      <use xlink:href="#DejaVuSans-65" x="526.607422"/>
      <use xlink:href="#DejaVuSans-20" x="588.130859"/>
      <use xlink:href="#DejaVuSans-61" x="619.917969"/>
      <use xlink:href="#DejaVuSans-6e" x="681.197266"/>
      <use xlink:href="#DejaVuSans-64" x="744.576172"/>
      <use xlink:href="#DejaVuSans-20" x="808.052734"/>
      <use xlink:href="#DejaVuSans-43" x="839.839844"/>
      <use xlink:href="#DejaVuSans-72" x="909.664062"/>
      <use xlink:href="#DejaVuSans-75" x="950.777344"/>
      <use xlink:href="#DejaVuSans-73" x="1014.15625"/>
      <use xlink:href="#DejaVuSans-74" x="1066.255859"/>
     </g>
    </g>
    <g id="patch_84">
     <path d="M 440.072869 159.289233 
L 460.072869 159.289233 
L 460.072869 152.289233 
L 440.072869 152.289233 
z
" style="fill: #fef392"/>
    </g>
    <g id="text_25">
     <!-- Mantle -->
     <g transform="translate(468.072869 159.289233) scale(0.1 -0.1)">
      <defs>
       <path id="DejaVuSans-4d" d="M 628 4666 
L 1569 4666 
L 2759 1491 
L 3956 4666 
L 4897 4666 
L 4897 0 
L 4281 0 
L 4281 4097 
L 3078 897 
L 2444 897 
L 1241 4097 
L 1241 0 
L 628 0 
L 628 4666 
z
" transform="scale(0.015625)"/>
      </defs>
      <use xlink:href="#DejaVuSans-4d"/>
      <use xlink:href="#DejaVuSans-61" x="86.279297"/>
      <use xlink:href="#DejaVuSans-6e" x="147.558594"/>
      <use xlink:href="#DejaVuSans-74" x="210.9375"/>
      <use xlink:href="#DejaVuSans-6c" x="250.146484"/>
      <use xlink:href="#DejaVuSans-65" x="277.929688"/>
     </g>
    </g>
    <g id="patch_85">
     <path d="M 440.072869 173.967358 
L 460.072869 173.967358 
L 460.072869 166.967358 
L 440.072869 166.967358 
z
" style="fill: #fff5ee"/>
    </g>
    <g id="text_26">
     <!-- Liquid Outer Core -->
     <g transform="translate(468.072869 173.967358) scale(0.1 -0.1)">
      <defs>
       <path id="DejaVuSans-71" d="M 947 1747 
Q 947 1113 1208 752 
Q 1469 391 1925 391 
Q 2381 391 2643 752 
Q 2906 1113 2906 1747 
Q 2906 2381 2643 2742 
Q 2381 3103 1925 3103 
Q 1469 3103 1208 2742 
Q 947 2381 947 1747 
z
M 2906 525 
Q 2725 213 2448 61 
Q 2172 -91 1784 -91 
Q 1150 -91 751 415 
Q 353 922 353 1747 
Q 353 2572 751 3078 
Q 1150 3584 1784 3584 
Q 2172 3584 2448 3432 
Q 2725 3281 2906 2969 
L 2906 3500 
L 3481 3500 
L 3481 -1331 
L 2906 -1331 
L 2906 525 
z
" transform="scale(0.015625)"/>
       <path id="DejaVuSans-4f" d="M 2522 4238 
Q 1834 4238 1429 3725 
Q 1025 3213 1025 2328 
Q 1025 1447 1429 934 
Q 1834 422 2522 422 
Q 3209 422 3611 934 
Q 4013 1447 4013 2328 
Q 4013 3213 3611 3725 
Q 3209 4238 2522 4238 
z
M 2522 4750 
Q 3503 4750 4090 4092 
Q 4678 3434 4678 2328 
Q 4678 1225 4090 567 
Q 3503 -91 2522 -91 
Q 1538 -91 948 565 
Q 359 1222 359 2328 
Q 359 3434 948 4092 
Q 1538 4750 2522 4750 
z
" transform="scale(0.015625)"/>
      </defs>
      <use xlink:href="#DejaVuSans-4c"/>
      <use xlink:href="#DejaVuSans-69" x="55.712891"/>
      <use xlink:href="#DejaVuSans-71" x="83.496094"/>
      <use xlink:href="#DejaVuSans-75" x="146.972656"/>
      <use xlink:href="#DejaVuSans-69" x="210.351562"/>
      <use xlink:href="#DejaVuSans-64" x="238.134766"/>
      <use xlink:href="#DejaVuSans-20" x="301.611328"/>
      <use xlink:href="#DejaVuSans-4f" x="333.398438"/>
      <use xlink:href="#DejaVuSans-75" x="412.109375"/>
      <use xlink:href="#DejaVuSans-74" x="475.488281"/>
      <use xlink:href="#DejaVuSans-65" x="514.697266"/>
      <use xlink:href="#DejaVuSans-72" x="576.220703"/>
      <use xlink:href="#DejaVuSans-20" x="617.333984"/>
      <use xlink:href="#DejaVuSans-43" x="649.121094"/>
      <use xlink:href="#DejaVuSans-6f" x="718.945312"/>
      <use xlink:href="#DejaVuSans-72" x="780.126953"/>
      <use xlink:href="#DejaVuSans-65" x="818.990234"/>
     </g>
    </g>
    <g id="patch_86">
     <path d="M 440.072869 188.645483 
L 460.072869 188.645483 
L 460.072869 181.645483 
L 440.072869 181.645483 
z
" style="fill: #d3d3d3"/>
    </g>
    <g id="text_27">
     <!-- Solid Inner Core -->
     <g transform="translate(468.072869 188.645483) scale(0.1 -0.1)">
      <use xlink:href="#DejaVuSans-53"/>
      <use xlink:href="#DejaVuSans-6f" x="63.476562"/>
      <use xlink:href="#DejaVuSans-6c" x="124.658203"/>
      <use xlink:href="#DejaVuSans-69" x="152.441406"/>
      <use xlink:href="#DejaVuSans-64" x="180.224609"/>
      <use xlink:href="#DejaVuSans-20" x="243.701172"/>
      <use xlink:href="#DejaVuSans-49" x="275.488281"/>
      <use xlink:href="#DejaVuSans-6e" x="304.980469"/>
      <use xlink:href="#DejaVuSans-6e" x="368.359375"/>
      <use xlink:href="#DejaVuSans-65" x="431.738281"/>
      <use xlink:href="#DejaVuSans-72" x="493.261719"/>
      <use xlink:href="#DejaVuSans-20" x="534.375"/>
      <use xlink:href="#DejaVuSans-43" x="566.162109"/>
      <use xlink:href="#DejaVuSans-6f" x="635.986328"/>
      <use xlink:href="#DejaVuSans-72" x="697.167969"/>
      <use xlink:href="#DejaVuSans-65" x="736.03125"/>
     </g>
    </g>
   </g>
  </g>
 </g>
 <defs>
  <clipPath id="pb935d59601">
   <rect x="126" y="113.334545" width="355.090909" height="355.090909"/>
  </clipPath>
  <clipPath id="p3e5a20ca6f">
   <rect x="552.109091" y="113.334545" width="355.090909" height="355.090909"/>
  </clipPath>
 </defs>
</svg>
